<svg width="50" height="50" viewBox="0 0 50 50" fill="none" xmlns="http://www.w3.org/2000/svg">
<g clip-path="url(#clip0_209_4858)">
<path d="M13.22 37.7271C6.20468 31.1915 5.81687 20.2353 12.3525 13.22C18.8882 6.20468 29.8443 5.81687 36.8597 12.3525C43.875 18.8882 44.2628 29.8443 37.7271 36.8597C31.1914 43.875 20.2353 44.2628 13.22 37.7271ZM35.4691 13.8452C29.2747 8.07431 19.616 8.41619 13.8452 14.6106C8.0743 20.805 8.41619 30.4636 14.6106 36.2345C20.805 42.0054 30.4636 41.6635 36.2345 35.4691C42.0053 29.2747 41.6635 19.616 35.4691 13.8452Z" fill="#162760"/>
<path d="M30.0523 32.0794L29.6287 20.1142L17.6635 20.5377L17.5921 18.5195L31.5755 18.0245L32.0705 32.008L30.0523 32.0794Z" fill="#162760"/>
<path d="M29.8558 18.374L31.3484 19.7646L19.5286 32.4519L18.0359 31.0613L29.8558 18.374Z" fill="#162760"/>
</g>
<defs>
<clipPath id="clip0_209_4858">
<rect width="35.0931" height="35.1257" fill="white" transform="translate(24.2282 0.188477) rotate(42.9728)"/>
</clipPath>
</defs>
</svg>
