<svg width="28" height="60" viewBox="0 0 28 60" fill="none" xmlns="http://www.w3.org/2000/svg">
<g clip-path="url(#clip0_209_4821)">
<path d="M14.4184 48.75C15.763 48.75 17.0525 49.2768 18.0033 50.2145C18.9541 51.1521 19.4882 52.4239 19.4882 53.75C19.4882 55.0761 18.9541 56.3478 18.0033 57.2855C17.0525 58.2232 15.763 58.75 14.4184 58.75C13.0739 58.75 11.7844 58.2232 10.8336 57.2855C9.88284 56.3478 9.3487 55.0761 9.3487 53.75C9.3487 52.4239 9.88284 51.1521 10.8336 50.2145C11.7844 49.2768 13.0739 48.75 14.4184 48.75ZM19.4882 41.25H9.3487V40.9275C9.34824 27.8627 7.67292 14.8503 4.36261 2.2L4.27896 1.875V1.25H24.5579V1.875L24.4743 2.1975C21.164 14.8478 19.4887 27.8602 19.4882 40.925V41.25Z" stroke="#162760" stroke-width="3"/>
</g>
<defs>
<clipPath id="clip0_209_4821">
<rect width="28" height="60" fill="white"/>
</clipPath>
</defs>
</svg>
