<svg width="66" height="66" viewBox="0 0 66 66" fill="none" xmlns="http://www.w3.org/2000/svg">
<path opacity="0.73" fill-rule="evenodd" clip-rule="evenodd" d="M28.5992 49.7411C34.2061 49.7411 39.5835 47.5139 43.5482 43.5494C47.5129 39.5848 49.7402 34.2078 49.7402 28.6011C49.7402 22.9945 47.5129 17.6175 43.5482 13.6529C39.5835 9.68843 34.2061 7.46119 28.5992 7.46119C22.9922 7.46119 17.6149 9.68843 13.6502 13.6529C9.68547 17.6175 7.45812 22.9945 7.45812 28.6011C7.45812 34.2078 9.68547 39.5848 13.6502 43.5494C17.6149 47.5139 22.9922 49.7411 28.5992 49.7411ZM28.5992 57.2023C34.8978 57.2107 41.0218 55.1328 46.0144 51.293L59.5397 64.8126C59.8813 65.1792 60.2932 65.4731 60.7508 65.677C61.2085 65.8809 61.7025 65.9906 62.2034 65.9994C62.7043 66.0083 63.2019 65.9161 63.6665 65.7285C64.131 65.5409 64.553 65.2616 64.9073 64.9073C65.2615 64.5531 65.5408 64.1311 65.7285 63.6666C65.9161 63.2021 66.0083 62.7045 65.9994 62.2036C65.9906 61.7027 65.8809 61.2087 65.677 60.7511C65.4731 60.2935 65.1791 59.8816 64.8126 59.5401L51.2922 46.0155C55.2236 40.8938 57.3063 34.5926 57.2015 28.137C57.0967 21.6814 54.8106 15.4512 50.7152 10.4597C46.6197 5.46827 40.9557 2.00929 34.6446 0.645433C28.3335 -0.718424 21.7466 0.0930858 15.9553 2.94796C10.164 5.80283 5.50911 10.5331 2.74773 16.3693C-0.0136432 22.2055 -0.718998 28.8043 0.746403 35.0923C2.2118 41.3803 5.76174 46.9875 10.8188 51.0018C15.8758 55.0162 22.1424 57.2015 28.5992 57.2023ZM32.33 18.6529C32.33 17.6635 31.9369 16.7146 31.2372 16.015C30.5376 15.3154 29.5886 14.9224 28.5992 14.9224C27.6097 14.9224 26.6608 15.3154 25.9611 16.015C25.2615 16.7146 24.8684 17.6635 24.8684 18.6529V24.8706H18.6504C17.661 24.8706 16.712 25.2636 16.0124 25.9632C15.3127 26.6628 14.9197 27.6117 14.9197 28.6011C14.9197 29.5906 15.3127 30.5394 16.0124 31.2391C16.712 31.9387 17.661 32.3317 18.6504 32.3317H24.8684V38.5494C24.8684 39.5388 25.2615 40.4877 25.9611 41.1873C26.6608 41.8869 27.6097 42.2799 28.5992 42.2799C29.5886 42.2799 30.5376 41.8869 31.2372 41.1873C31.9369 40.4877 32.33 39.5388 32.33 38.5494V32.3317H38.5479C39.5374 32.3317 40.4863 31.9387 41.186 31.2391C41.8856 30.5394 42.2787 29.5906 42.2787 28.6011C42.2787 27.6117 41.8856 26.6628 41.186 25.9632C40.4863 25.2636 39.5374 24.8706 38.5479 24.8706H32.33V18.6529Z" fill="white"/>
</svg>
